# Blender 3.6.5
# www.blender.org
mtllib fence.mtl
o fence
v -0.043264 1.027180 0.500000
v -0.043264 1.028916 0.498264
v -0.045000 1.027180 0.498264
v 0.015000 1.027180 0.498264
v 0.013264 1.028916 0.498264
v 0.013264 1.027180 0.500000
v -0.045000 1.027180 0.001736
v -0.043264 1.028916 0.001736
v -0.043264 1.027180 -0.000000
v 0.013264 1.027180 -0.000000
v 0.013264 1.028916 0.001736
v 0.015000 1.027180 0.001736
v -0.045000 1.000652 0.001736
v -0.043264 1.000652 -0.000000
v -0.043264 0.998916 0.001736
v 0.013264 0.998916 0.001736
v 0.013264 1.000652 -0.000000
v 0.015000 1.000652 0.001736
v -0.045000 1.000652 0.498264
v -0.043264 0.998916 0.498264
v -0.043264 1.000652 0.500000
v 0.015000 1.000652 0.498264
v 0.013264 1.000652 0.500000
v 0.013264 0.998916 0.498264
v -0.020764 0.051317 0.210000
v -0.022500 0.051317 0.208264
v -0.022500 0.998916 0.208264
v -0.020764 0.998916 0.210000
v -0.007500 0.051317 0.208264
v -0.009236 0.051317 0.210000
v -0.009236 0.998916 0.210000
v -0.007500 0.998916 0.208264
v -0.020764 0.998916 0.195000
v -0.022500 0.998916 0.196736
v -0.022500 0.051317 0.196736
v -0.020764 0.051317 0.195000
v -0.007500 0.998916 0.196736
v -0.009236 0.998916 0.195000
v -0.009236 0.051317 0.195000
v -0.007500 0.051317 0.196736
v -0.030000 -0.498264 0.490164
v -0.028264 -0.498264 0.488428
v -0.028264 -0.500000 0.490164
v -0.001736 -0.500000 0.490164
v -0.001736 -0.498264 0.488428
v 0.000000 -0.498264 0.490164
v -0.028264 -0.500000 0.498264
v -0.028264 -0.498264 0.500000
v -0.030000 -0.498264 0.498264
v -0.001736 -0.498264 0.500000
v -0.001736 -0.500000 0.498264
v 0.000000 -0.498264 0.498264
v -0.028264 1.000000 0.488428
v -0.030000 1.000000 0.490163
v -0.000000 1.000000 0.490163
v -0.001736 1.000000 0.488428
v -0.030000 1.000000 0.498264
v -0.028264 1.000000 0.500000
v -0.001736 1.000000 0.500000
v -0.000000 1.000000 0.498264
v -0.020764 0.051317 0.410000
v -0.022500 0.051317 0.408264
v -0.022500 0.998916 0.408264
v -0.020764 0.998916 0.410000
v -0.007500 0.051317 0.408264
v -0.009236 0.051317 0.410000
v -0.009236 0.998916 0.410000
v -0.007500 0.998916 0.408264
v -0.020764 0.998916 0.395000
v -0.022500 0.998916 0.396736
v -0.022500 0.051317 0.396736
v -0.020764 0.051317 0.395000
v -0.007500 0.998916 0.396736
v -0.009236 0.998916 0.395000
v -0.009236 0.051317 0.395000
v -0.007500 0.051317 0.396736
v -0.020764 0.051317 0.310000
v -0.022500 0.051317 0.308264
v -0.022500 0.998916 0.308264
v -0.020764 0.998916 0.310000
v -0.007500 0.051317 0.308264
v -0.009236 0.051317 0.310000
v -0.009236 0.998916 0.310000
v -0.007500 0.998916 0.308264
v -0.020764 0.998916 0.295000
v -0.022500 0.998916 0.296736
v -0.022500 0.051317 0.296736
v -0.020764 0.051317 0.295000
v -0.007500 0.998916 0.296736
v -0.009236 0.998916 0.295000
v -0.009236 0.051317 0.295000
v -0.007500 0.051317 0.296736
v -0.028264 -0.500000 0.009837
v -0.028264 -0.498264 0.011572
v -0.030000 -0.498264 0.009837
v 0.000000 -0.498264 0.009837
v -0.001736 -0.498264 0.011572
v -0.001736 -0.500000 0.009837
v -0.030000 -0.498264 0.001736
v -0.028264 -0.498264 0.000000
v -0.028264 -0.500000 0.001736
v 0.000000 -0.498264 0.001736
v -0.001736 -0.500000 0.001736
v -0.001736 -0.498264 0.000000
v -0.030000 1.000000 0.009836
v -0.028264 1.000000 0.011572
v -0.001736 1.000000 0.011572
v -0.000000 1.000000 0.009836
v -0.028264 1.000000 -0.000000
v -0.030000 1.000000 0.001736
v -0.000000 1.000000 0.001736
v -0.001736 1.000000 -0.000000
v -0.023955 0.051394 0.488428
v -0.025690 0.049658 0.488428
v -0.025690 0.049658 0.011572
v -0.023955 0.051394 0.011572
v -0.004310 0.049658 0.488428
v -0.006045 0.051394 0.488428
v -0.006045 0.051394 0.011572
v -0.004310 0.049658 0.011572
v -0.023955 0.030013 0.011572
v -0.025690 0.031749 0.011572
v -0.025690 0.031749 0.488428
v -0.023955 0.030013 0.488428
v -0.004310 0.031749 0.011572
v -0.006045 0.030013 0.011572
v -0.006045 0.030013 0.488428
v -0.004310 0.031749 0.488428
v -0.020764 0.051317 0.110000
v -0.022500 0.051317 0.108264
v -0.022500 0.998916 0.108264
v -0.020764 0.998916 0.110000
v -0.007500 0.051317 0.108264
v -0.009236 0.051317 0.110000
v -0.009236 0.998916 0.110000
v -0.007500 0.998916 0.108264
v -0.020764 0.998916 0.095000
v -0.022500 0.998916 0.096736
v -0.022500 0.051317 0.096736
v -0.020764 0.051317 0.095000
v -0.007500 0.998916 0.096736
v -0.009236 0.998916 0.095000
v -0.009236 0.051317 0.095000
v -0.007500 0.051317 0.096736
vn 0.1298 -0.0000 0.9915
vn -0.1298 -0.0000 0.9915
vn -0.1298 -0.0000 -0.9915
vn 0.1298 -0.0000 -0.9915
vn 0.9915 -0.0000 -0.1297
vn 0.9915 -0.0000 0.1297
vn -0.9915 0.0001 0.1297
vn -0.9915 -0.0000 0.1297
vn -0.9915 -0.0001 -0.1297
vn -0.9915 -0.0000 -0.1297
vn 0.0880 0.9961 -0.0000
vn -0.0880 0.9961 0.0001
vn -0.0880 0.9961 -0.0000
vn -0.0880 -0.9961 -0.0001
vn -0.0880 -0.9961 -0.0000
vn 0.0880 -0.9961 0.0001
vn 0.0880 -0.9961 -0.0000
vn 0.9961 -0.0880 -0.0000
vn 0.9961 0.0880 -0.0000
vn -0.9961 0.0880 -0.0000
vn -0.9961 -0.0880 -0.0000
vn 0.1297 -0.0000 0.9915
vn -0.1297 -0.0001 0.9915
vn -0.1297 -0.0000 0.9915
vn 0.9915 0.0001 -0.1297
vn 0.9915 -0.0000 0.1298
vn -0.9915 0.0001 0.1298
vn -0.9915 -0.0000 0.1298
vn -0.0286 0.0601 0.9978
vn -0.9981 0.0612 0.0033
vn -0.9981 -0.0612 0.0033
vn -0.0285 -0.0601 0.9978
vn -0.0297 0.9996 0.0034
vn 0.0285 0.0601 0.9978
vn 0.0297 0.9996 0.0034
vn -0.0297 0.9996 -0.0034
vn -0.9981 0.0611 -0.0034
vn 0.9981 0.0611 0.0034
vn 0.0285 -0.0601 0.9978
vn 0.9981 -0.0612 0.0033
vn 0.9981 0.0612 -0.0033
vn 0.0297 0.9996 -0.0034
vn -0.0285 0.0601 -0.9978
vn -0.0285 -0.0601 -0.9978
vn -0.9981 -0.0612 -0.0033
vn 0.0285 0.0601 -0.9978
vn 0.9981 -0.0612 -0.0033
vn 0.0285 -0.0601 -0.9978
vn -0.0297 -0.9996 -0.0034
vn -0.0297 -0.9996 0.0034
vn 0.0297 -0.9996 -0.0034
vn 0.0297 -0.9996 0.0034
vn -0.9848 -0.0010 -0.1736
vn -0.0537 -0.9844 -0.1678
vn -0.0537 -0.9844 0.1678
vn -0.9848 -0.0010 0.1737
vn -0.0613 -0.0011 -0.9981
vn -0.9848 -0.0001 -0.1738
vn -0.0613 -0.0000 -0.9981
vn 0.0612 -0.0011 -0.9981
vn 0.0537 -0.9844 -0.1678
vn 0.9848 -0.0010 -0.1737
vn 0.9848 -0.0010 0.1737
vn 0.0537 -0.9844 0.1678
vn 0.0613 -0.0000 -0.9981
vn 0.9848 -0.0000 -0.1738
vn -0.0612 -0.0011 0.9981
vn 0.0613 -0.0011 0.9981
vn -0.0613 -0.0000 0.9981
vn -0.9848 -0.0000 0.1737
vn 0.9848 -0.0000 0.1737
vn 0.0613 -0.0000 0.9981
vn -0.9848 -0.0010 -0.1737
vn -0.9848 -0.0000 -0.1737
vn 0.9848 -0.0000 -0.1737
vt 0.273492 0.012205
vt 0.273224 0.616431
vt 0.265591 0.616433
vt 0.265629 0.012205
vt 0.292104 0.012207
vt 0.292104 0.616432
vt 0.284684 0.616433
vt 0.284667 0.012206
vt 0.283024 0.012205
vt 0.283062 0.616433
vt 0.275443 0.616431
vt 0.275175 0.012205
vt 0.263966 0.012205
vt 0.263948 0.616433
vt 0.256352 0.616433
vt 0.256351 0.012206
vt 0.319054 0.012204
vt 0.318786 0.616431
vt 0.311152 0.616433
vt 0.311191 0.012205
vt 0.337667 0.012207
vt 0.337667 0.616432
vt 0.330245 0.616433
vt 0.330227 0.012205
vt 0.328585 0.012205
vt 0.328623 0.616433
vt 0.321005 0.616431
vt 0.320737 0.012205
vt 0.309529 0.012205
vt 0.309510 0.616433
vt 0.301915 0.616432
vt 0.301913 0.012206
vt 0.419603 0.012199
vt 0.419475 0.616432
vt 0.411743 0.616439
vt 0.411855 0.012197
vt 0.400889 0.012200
vt 0.400874 0.616438
vt 0.393301 0.616435
vt 0.393301 0.012204
vt 0.428765 0.012200
vt 0.429080 0.616432
vt 0.421693 0.616432
vt 0.421232 0.012200
vt 0.410216 0.012197
vt 0.410107 0.616439
vt 0.402488 0.616439
vt 0.402509 0.012200
vt 0.451923 0.316274
vt 0.452192 0.012207
vt 0.463913 0.012203
vt 0.463892 0.316274
vt 0.479138 0.316272
vt 0.479138 0.012204
vt 0.490629 0.012206
vt 0.490629 0.316271
vt 0.438572 0.316271
vt 0.438539 0.012206
vt 0.449979 0.012207
vt 0.450280 0.316272
vt 0.465545 0.316274
vt 0.465556 0.012203
vt 0.477505 0.012203
vt 0.477505 0.316273
vt 0.364616 0.012204
vt 0.364348 0.616433
vt 0.356714 0.616435
vt 0.356753 0.012205
vt 0.383228 0.012207
vt 0.383228 0.616434
vt 0.375807 0.616435
vt 0.375790 0.012206
vt 0.374147 0.012205
vt 0.374185 0.616435
vt 0.366567 0.616433
vt 0.366299 0.012205
vt 0.355091 0.012205
vt 0.355072 0.616435
vt 0.347477 0.616434
vt 0.347475 0.012206
vt 0.134166 0.369284
vt 0.134166 0.368177
vt 0.151502 0.368107
vt 0.151431 0.369735
vt 0.246477 0.368070
vt 0.246937 0.369531
vt 0.209803 0.369684
vt 0.210257 0.368223
vt 0.247991 0.368107
vt 0.246477 0.051675
vt 0.247992 0.051643
vt 0.208726 0.368267
vt 0.208786 0.369825
vt 0.191215 0.369820
vt 0.191224 0.368263
vt 0.208726 0.051483
vt 0.210255 0.051526
vt 0.134408 0.051783
vt 0.134140 0.050175
vt 0.151424 0.050082
vt 0.151536 0.051721
vt 0.246936 0.050222
vt 0.209802 0.050058
vt 0.208790 0.049923
vt 0.191225 0.051491
vt 0.191219 0.049932
vt 0.153072 0.051781
vt 0.153044 0.368039
vt 0.152607 0.050339
vt 0.190157 0.050070
vt 0.189686 0.051532
vt 0.189687 0.368219
vt 0.152607 0.369471
vt 0.190159 0.369685
vt 0.293723 0.616432
vt 0.293723 0.012207
vt 0.018479 0.012207
vt 0.018479 0.013314
vt 0.013125 0.013477
vt 0.012916 0.011910
vt 0.038012 0.032504
vt 0.039586 0.032473
vt 0.039559 0.987819
vt 0.037990 0.987817
vt 0.038617 0.031063
vt 0.020834 0.032418
vt 0.020196 0.030967
vt 0.018867 0.030825
vt 0.019267 0.032411
vt 0.014069 0.032413
vt 0.013696 0.030845
vt 0.020938 0.987818
vt 0.019351 0.987819
vt 0.046399 0.032543
vt 0.045848 0.031075
vt 0.064144 0.031133
vt 0.063469 0.032604
vt 0.044836 0.032485
vt 0.046352 0.987818
vt 0.044767 0.987819
vt 0.065052 0.032529
vt 0.064945 0.987818
vt 0.063355 0.987818
vt 0.339285 0.616431
vt 0.339285 0.012207
vt 0.391676 0.616435
vt 0.391675 0.012204
vt 0.073740 0.013314
vt 0.073678 0.011712
vt 0.079083 0.011892
vt 0.079108 0.013464
vt 0.106917 0.032501
vt 0.106399 0.031082
vt 0.124719 0.031123
vt 0.124027 0.032535
vt 0.105315 0.032450
vt 0.106850 0.987810
vt 0.105265 0.987810
vt 0.074314 0.031983
vt 0.073740 0.030229
vt 0.079246 0.030576
vt 0.079523 0.032113
vt 0.125618 0.032515
vt 0.125572 0.987807
vt 0.123971 0.987807
vt 0.098430 0.032429
vt 0.100042 0.032410
vt 0.100012 0.987811
vt 0.098403 0.987811
vt 0.099031 0.031041
vt 0.081129 0.032157
vt 0.080520 0.030761
vt 0.081190 0.987810
vt 0.079595 0.987810
vt 0.492250 0.012206
vt 0.492250 0.316270
vt 0.384847 0.616433
vt 0.384847 0.012207
vt 0.208571 0.406484
vt 0.191446 0.406485
vt 0.191449 0.013264
vt 0.208573 0.013265
vt 0.014174 0.987818
vt 0.074400 0.987810
s 1
usemtl fenceMat
f 30/1/1 31/2/1 28/3/2 25/4/2
f 36/5/3 33/6/3 38/7/4 39/8/4
f 40/9/5 37/10/5 32/11/6 29/12/6
f 26/13/7 27/14/8 34/15/9 35/16/10
f 66/17/1 67/18/1 64/19/2 61/20/2
f 72/21/3 69/22/3 74/23/4 75/24/4
f 76/25/5 73/26/5 68/27/6 65/28/6
f 62/29/8 63/30/8 70/31/10 71/32/10
f 82/33/1 83/34/1 80/35/2 77/36/2
f 88/37/3 85/38/3 90/39/4 91/40/4
f 92/41/5 89/42/5 84/43/6 81/44/6
f 78/45/8 79/46/8 86/47/10 87/48/10
f 118/49/11 119/50/11 116/51/12 113/52/13
f 124/53/14 121/54/15 126/55/16 127/56/17
f 128/57/18 125/58/18 120/59/19 117/60/19
f 114/61/20 115/62/20 122/63/21 123/64/21
f 134/65/22 135/66/22 132/67/23 129/68/24
f 140/69/3 137/70/3 142/71/4 143/72/4
f 144/73/25 141/74/5 136/75/26 133/76/26
f 130/77/27 131/78/28 138/79/10 139/80/10
f 1/81/29 3/82/30 19/83/31 21/84/32
f 2/85/33 1/86/29 6/87/34 5/88/35
f 3/89/30 2/85/33 8/90/36 7/91/37
f 4/92/38 6/93/34 23/94/39 22/95/40
f 5/88/35 4/92/38 12/96/41 11/97/42
f 7/98/37 9/99/43 14/100/44 13/101/45
f 9/102/43 8/90/36 11/97/42 10/103/46
f 10/104/46 12/96/41 18/105/47 17/106/48
f 13/101/45 15/107/49 20/108/50 19/83/31
f 15/107/49 14/109/44 17/110/48 16/111/51
f 16/111/51 18/105/47 22/95/40 24/112/52
f 21/113/32 20/108/50 24/112/52 23/114/39
f 26/13/7 25/4/2 28/3/2 27/14/8
f 30/1/1 29/12/6 32/11/6 31/2/1
f 34/115/9 33/6/3 36/5/3 35/116/10
f 38/7/4 37/10/5 40/9/5 39/8/4
f 41/117/53 43/118/54 47/119/55 49/120/56
f 42/121/57 41/122/53 54/123/58 53/124/59
f 43/125/54 42/121/57 45/126/60 44/127/61
f 44/128/61 46/129/62 52/130/63 51/131/64
f 46/129/62 45/126/60 56/132/65 55/133/66
f 48/134/67 47/135/55 51/136/64 50/137/68
f 49/138/56 48/134/67 58/139/69 57/140/70
f 50/137/68 52/141/63 60/142/71 59/143/72
f 62/29/8 61/20/2 64/19/2 63/30/8
f 66/17/1 65/28/6 68/27/6 67/18/1
f 70/144/10 69/22/3 72/21/3 71/145/10
f 74/23/4 73/26/5 76/25/5 75/24/4
f 78/45/8 77/36/2 80/35/2 79/46/8
f 82/33/1 81/44/6 84/43/6 83/34/1
f 86/47/10 85/38/3 88/37/3 87/48/10
f 90/39/4 89/146/5 92/147/5 91/40/4
f 93/148/55 95/149/56 99/150/73 101/151/54
f 94/152/67 93/153/55 98/154/64 97/155/68
f 95/156/56 94/152/67 106/157/69 105/158/70
f 96/159/63 98/160/64 103/161/61 102/162/62
f 97/155/68 96/163/63 108/164/71 107/165/72
f 100/166/57 99/167/73 110/168/74 109/169/59
f 101/170/54 100/166/57 104/171/60 103/172/61
f 102/162/62 104/171/60 112/173/65 111/174/75
f 114/61/20 113/52/13 116/51/12 115/62/20
f 118/49/11 117/60/19 120/59/19 119/50/11
f 122/63/21 121/54/15 124/53/14 123/64/21
f 126/55/16 125/175/18 128/176/18 127/56/17
f 130/77/27 129/68/24 132/67/23 131/78/28
f 134/65/22 133/76/26 136/75/26 135/66/22
f 138/177/10 137/70/3 140/69/3 139/178/10
f 142/71/4 141/74/5 144/73/25 143/72/4
f 11/97/42 8/90/36 2/85/33 5/88/35
f 20/108/50 15/107/49 16/111/51 24/112/52
f 18/105/47 12/96/41 4/92/38 22/95/40
f 7/98/37 13/101/45 19/83/31 3/82/30
f 6/93/34 1/179/29 21/180/32 23/94/39
f 10/104/46 17/106/48 14/181/44 9/182/43
f 56/132/65 45/126/60 42/121/57 53/124/59
f 48/134/67 50/137/68 59/143/72 58/139/69
f 47/119/55 43/118/54 44/128/61 51/131/64
f 60/183/71 52/130/63 46/129/62 55/133/66
f 54/123/58 41/122/53 49/138/56 57/140/70
f 97/155/68 107/165/72 106/157/69 94/152/67
f 100/166/57 109/169/59 112/173/65 104/171/60
f 101/151/54 103/161/61 98/160/64 93/148/55
f 102/162/62 111/174/75 108/184/71 96/159/63
f 95/156/56 105/158/70 110/168/74 99/167/73
f 1/86/29 2/85/33 3/89/30
f 4/92/38 5/88/35 6/87/34
f 7/91/37 8/90/36 9/102/43
f 10/103/46 11/97/42 12/96/41
f 13/101/45 14/109/44 15/107/49
f 16/111/51 17/110/48 18/105/47
f 19/83/31 20/108/50 21/113/32
f 22/95/40 23/114/39 24/112/52
f 41/122/53 42/121/57 43/125/54
f 44/127/61 45/126/60 46/129/62
f 47/135/55 48/134/67 49/138/56
f 50/137/68 51/136/64 52/141/63
f 93/153/55 94/152/67 95/156/56
f 96/163/63 97/155/68 98/154/64
f 99/167/73 100/166/57 101/170/54
f 102/162/62 103/172/61 104/171/60
